<svg viewBox="0 0 3000 3000" xmlns="http://www.w3.org/2000/svg"><path d="m569.77 1924.06s301.52-159.18 998.39-274.84c696.87-115.67 862.06-342.35 862.06-342.35" fill="none" stroke="#8a7ebb" stroke-linecap="round" stroke-miterlimit="10" stroke-width="19"/><g fill="#f1f2f2"><path d="m1784.68 1345.27c-.14 63.85 42.05 111.5 99.18 112.02 57.92.53 99.44-45.54 99.59-110.52.16-66.19-39.23-110.87-98.15-111.36-58.5-.49-100.48 45.35-100.63 109.85z"/><path d="m2131.82 1993.24c-85.4-57.18-152.64-130.8-178.51-233.92-22.11-88.14 34.99-147.39 121.55-119.36 50.35 16.3 94.46 51.9 146.86 81.97-36.31-90.69-100.74-146.35-187.22-178.44-22.33-8.29-47.04-12-70.97-13.82-194.28-14.74-311.34-132.56-396.27-294.34-20.47-38.99-12.99-62.44 33.08-70.31 38.37-6.56 76.29-15.74 114.47-23.5 108.74-22.08 161.78-65.64 179.77-161.98-19.43 15.44-37.53 29.57-41.42 31.78-77.38 43.89-163.58 44.04-163.58 44.04s75.25-14.69 141.97-56.02 70.14-94.5 70.14-94.5c-82.14 25.49-164.69 41.68-238.57 76.34-98.65 46.28-157.6 211.6-111.84 327.08 38.56 97.3 99.03 185.96 150.34 278.14 20.73 37.25 46.5 72.19 62.85 111.17 8.02 19.11 8.52 53.67-3.34 65.7-14.4 14.61-46.68 20.27-68.99 16.52-39.87-6.7-77.57-25.33-117.11-35.27-38.27-9.62-67.41 8.62-63.24 47.79 11.66 109.67 57.11 207.66 124.43 298.63-2.9-28.59-4.6-57.36-8.9-85.74-16.41-108.41 41.88-159.98 143.48-118.83 61.36 24.85 117.98 62.46 174.62 97.73 93.72 58.37 186.86 116.51 303.64 110.6 14.29-.72 28.52-2.74 51.16-4.99-61.32-34.79-117.16-62.2-168.39-96.5z"/><path d="m1215.32 1345.27c.14 63.85-42.05 111.5-99.18 112.02-57.92.53-99.44-45.54-99.59-110.52-.16-66.19 39.23-110.87 98.15-111.36 58.5-.49 100.48 45.35 100.63 109.85z"/><path d="m868.18 1993.24c85.4-57.18 152.64-130.8 178.51-233.92 22.11-88.14-34.99-147.39-121.55-119.36-50.35 16.3-94.46 51.9-146.86 81.97 36.31-90.69 100.74-146.35 187.22-178.44 22.33-8.29 47.04-12 70.97-13.82 194.28-14.74 311.34-132.56 396.27-294.34 20.47-38.99 12.99-62.44-33.08-70.31-38.37-6.56-76.29-15.74-114.47-23.5-108.74-22.08-161.78-65.64-179.77-161.98 19.43 15.44 37.53 29.57 41.42 31.78 77.38 43.89 163.58 44.04 163.58 44.04s-75.25-14.69-141.97-56.02-70.14-94.5-70.14-94.5c82.14 25.49 164.69 41.68 238.57 76.34 98.65 46.28 157.6 211.6 111.84 327.08-38.56 97.3-99.03 185.96-150.34 278.14-20.73 37.25-46.5 72.19-62.85 111.17-8.02 19.11-8.52 53.67 3.34 65.7 14.4 14.61 46.68 20.27 68.99 16.52 39.87-6.7 77.57-25.33 117.11-35.27 38.27-9.62 67.41 8.62 63.24 47.79-11.66 109.67-57.11 207.66-124.43 298.63 2.9-28.59 4.6-57.36 8.9-85.74 16.41-108.41-41.88-159.98-143.48-118.83-61.36 24.85-117.98 62.46-174.62 97.73-93.72 58.37-186.86 116.51-303.64 110.6-14.29-.72-28.52-2.74-51.16-4.99 61.32-34.79 117.16-62.2 168.39-96.5z"/></g></svg>