<?xml version="1.0" standalone="no"?>
<!DOCTYPE svg PUBLIC "-//W3C//DTD SVG 20010904//EN"
 "http://www.w3.org/TR/2001/REC-SVG-20010904/DTD/svg10.dtd">
<svg version="1.0" xmlns="http://www.w3.org/2000/svg"
 width="400.000000pt" height="400.000000pt" viewBox="0 0 400.000000 400.000000"
 preserveAspectRatio="xMidYMid meet">
<metadata>
Created by potrace 1.14, written by Peter Selinger 2001-2017
</metadata>
<g transform="translate(0.000000,400.000000) scale(0.100000,-0.100000)"
fill="#000000" stroke="none">
<path d="M1294 3378 c10 -51 42 -110 84 -153 58 -61 80 -76 172 -123 63 -32
76 -41 50 -36 -90 15 -199 70 -251 126 -20 21 -39 38 -43 38 -17 0 34 -165 70
-221 23 -36 89 -96 130 -117 29 -15 137 -49 305 -96 31 -9 62 -23 69 -31 31
-37 18 -104 -47 -245 -81 -177 -158 -296 -255 -392 -112 -111 -239 -176 -376
-194 -164 -21 -282 -97 -381 -244 -20 -30 -43 -68 -50 -85 -33 -75 -50 -125
-43 -125 4 0 48 34 97 75 142 119 225 150 293 109 39 -23 60 -56 76 -116 19
-75 9 -170 -30 -288 -74 -223 -193 -372 -449 -562 -69 -51 -125 -95 -125 -99
0 -3 17 -7 38 -9 211 -16 311 30 612 281 222 185 311 239 395 239 59 0 100
-36 125 -109 18 -55 20 -111 6 -311 l-6 -95 51 103 c90 182 153 403 166 581 5
83 4 88 -19 116 -34 39 -71 37 -171 -9 -107 -49 -144 -58 -188 -46 -52 14 -72
41 -74 102 -2 37 6 75 25 128 25 65 133 318 199 464 51 112 132 322 158 408
71 242 7 588 -138 743 -47 50 -136 99 -270 150 -52 20 -103 40 -114 44 -96 40
-99 40 -91 -1z"/>
<path d="M2540 3351 c-80 -31 -173 -72 -208 -91 -115 -61 -188 -170 -239 -357
-23 -84 -27 -118 -27 -233 0 -207 20 -264 331 -970 68 -153 74 -172 78 -235 3
-64 -7 -90 -45 -113 -44 -27 -94 -20 -201 28 -122 54 -145 56 -182 18 -30 -29
-30 -30 -24 -118 13 -178 74 -395 163 -576 l53 -109 -5 90 c-13 229 -13 259 6
315 11 33 31 66 51 84 29 25 37 28 89 24 45 -3 72 -13 126 -45 64 -39 213
-152 287 -220 118 -107 268 -203 373 -239 58 -19 244 -24 244 -6 0 4 -57 50
-127 102 -148 109 -262 218 -322 308 -163 243 -212 523 -111 631 75 78 162 54
337 -94 48 -40 89 -72 90 -71 6 6 -56 149 -89 203 -68 114 -206 221 -312 242
-31 6 -82 16 -113 22 -260 51 -456 250 -619 631 -18 42 -35 96 -39 120 -11 70
6 82 180 132 83 23 170 52 195 63 52 23 126 91 158 143 19 33 62 168 62 197 0
7 -19 -6 -43 -30 -50 -52 -114 -90 -182 -110 -94 -29 -112 -28 -47 2 137 65
226 148 265 249 20 51 21 72 5 71 -7 0 -78 -26 -158 -58z"/>
<path d="M1256 2478 c-88 -19 -144 -80 -153 -169 -7 -76 10 -132 57 -178 88
-87 242 -69 314 38 57 85 36 208 -45 272 -40 32 -117 49 -173 37z"/>
<path d="M2665 2480 c-107 -16 -176 -102 -170 -211 6 -118 97 -199 217 -193
122 7 198 103 185 233 -12 115 -112 189 -232 171z"/>
</g>
</svg>
